<svg class="main-svg" xmlns="http://www.w3.org/2000/svg" xmlns:xlink="http://www.w3.org/1999/xlink" width="1400" height="1000" style="" viewBox="0 0 700 500"><rect x="0" y="0" width="700" height="500" style="fill: rgb(255, 255, 255); fill-opacity: 1;"/><defs id="defs-b5ab68"><g class="clips"><clipPath id="clipb5ab68xyplot" class="plotclip"><rect width="540" height="320"/></clipPath><clipPath class="axesclip" id="clipb5ab68x"><rect x="80" y="0" width="540" height="500"/></clipPath><clipPath class="axesclip" id="clipb5ab68y"><rect x="0" y="100" width="700" height="320"/></clipPath><clipPath class="axesclip" id="clipb5ab68xy"><rect x="80" y="100" width="540" height="320"/></clipPath></g><g class="gradients"/><g class="patterns"/></defs><g class="bglayer"/><g class="layer-below"><g class="imagelayer"/><g class="shapelayer"/></g><g class="cartesianlayer"><g class="subplot xy"><g class="layer-subplot"><g class="shapelayer"/><g class="imagelayer"/></g><g class="minor-gridlayer"><g class="x"/><g class="y"/></g><g class="gridlayer"><g class="x"><path class="xgrid crisp" transform="translate(191.11,0)" d="M0,100v320" style="stroke: rgb(235, 240, 248); stroke-opacity: 1; stroke-width: 1px;"/><path class="xgrid crisp" transform="translate(302.22,0)" d="M0,100v320" style="stroke: rgb(235, 240, 248); stroke-opacity: 1; stroke-width: 1px;"/><path class="xgrid crisp" transform="translate(413.33,0)" d="M0,100v320" style="stroke: rgb(235, 240, 248); stroke-opacity: 1; stroke-width: 1px;"/><path class="xgrid crisp" transform="translate(524.44,0)" d="M0,100v320" style="stroke: rgb(235, 240, 248); stroke-opacity: 1; stroke-width: 1px;"/></g><g class="y"><path class="ygrid crisp" transform="translate(0,416.76)" d="M80,0h540" style="stroke: rgb(235, 240, 248); stroke-opacity: 1; stroke-width: 1px;"/><path class="ygrid crisp" transform="translate(0,364.23)" d="M80,0h540" style="stroke: rgb(235, 240, 248); stroke-opacity: 1; stroke-width: 1px;"/><path class="ygrid crisp" transform="translate(0,311.69)" d="M80,0h540" style="stroke: rgb(235, 240, 248); stroke-opacity: 1; stroke-width: 1px;"/><path class="ygrid crisp" transform="translate(0,259.15999999999997)" d="M80,0h540" style="stroke: rgb(235, 240, 248); stroke-opacity: 1; stroke-width: 1px;"/><path class="ygrid crisp" transform="translate(0,206.63)" d="M80,0h540" style="stroke: rgb(235, 240, 248); stroke-opacity: 1; stroke-width: 1px;"/><path class="ygrid crisp" transform="translate(0,154.09)" d="M80,0h540" style="stroke: rgb(235, 240, 248); stroke-opacity: 1; stroke-width: 1px;"/><path class="ygrid crisp" transform="translate(0,101.56)" d="M80,0h540" style="stroke: rgb(235, 240, 248); stroke-opacity: 1; stroke-width: 1px;"/></g></g><g class="zerolinelayer"><path class="xzl zl crisp" transform="translate(80,0)" d="M0,100v320" style="stroke: rgb(235, 240, 248); stroke-opacity: 1; stroke-width: 2px;"/></g><g class="layer-between"><g class="shapelayer"/><g class="imagelayer"/></g><path class="xlines-below"/><path class="ylines-below"/><g class="overlines-below"/><g class="xaxislayer-below"/><g class="yaxislayer-below"/><g class="overaxes-below"/><g class="overplot"><g class="xy" transform="translate(80,100)" clip-path="url(#clipb5ab68xyplot)"><g class="scatterlayer mlayer"><g class="trace scatter trace005476" style="stroke-miterlimit: 2; opacity: 1;"><g class="fills"/><g class="errorbars"/><g class="lines"><path class="js-line" d="M0,206.02L0.56,201.97L1.11,209.82L2.78,234.01L3.33,236.63L4.44,240.57L5,232.17L6.11,225.93L6.67,221.71L7.22,214.91L7.78,218.19L8.33,222.51L8.89,221.2L9.44,222.35L10,226.54L10.56,213.59L11.11,211.02L11.67,214.11L12.78,218.54L13.33,215.83L13.89,216.54L14.44,215.12L15,211.26L15.56,212.56L16.11,190.53L17.22,215.67L17.78,210.23L18.33,210.95L18.89,210.43L19.44,209.6L20,199.87L21.11,183.55L21.67,187.05L22.22,194.06L22.78,184.56L23.33,173.52L23.89,180.43L24.44,183.74L25,181.42L26.11,192.41L26.67,187.84L27.22,186.22L27.78,187.86L30,135.56L30.56,156.29L31.11,164.89L31.67,162.67L32.22,156.17L32.78,155.62L33.33,168.67L35,191.8L35.56,177.31L36.11,177.15L36.67,160.2L37.78,217.78L38.33,208.56L38.89,210.16L39.44,218.21L40.56,221.21L41.11,218.9L41.67,214.27L42.22,186.33L43.89,139.53L44.44,148.87L46.11,187.32L46.67,183.81L48.89,157.2L49.44,152.24L50.56,137.04L51.11,141.41L51.67,140.44L52.22,193.13L53.33,124.87L53.89,130.36L54.44,180.84L56.11,215.19L56.67,222.61L57.78,216.34L58.33,210.31L60,185.03L60.56,195.45L61.11,201.82L61.67,195.14L64.44,99.27L65,100.35L65.56,106.78L66.67,163.53L67.22,161.89L67.78,167.8L68.33,165.69L68.89,168.17L69.44,156.74L70,158.24L70.56,161.76L71.67,175.95L72.22,171.94L72.78,158.49L73.33,103.72L75,200.5L75.56,200.63L76.67,204.84L77.22,209.35L79.44,228.84L80,220.72L81.11,210.18L81.67,213.25L82.78,220.24L83.33,221.23L83.89,217.56L84.44,182.62L86.11,227.17L86.67,219.57L87.78,209.15L88.33,211.44L88.89,217.61L89.44,214.43L90,211.24L90.56,214.01L92.22,221.85L92.78,221.57L93.89,208.67L94.44,211.15L95,216.7L95.56,213.64L97.22,120.41L97.78,192.81L98.33,214.08L98.89,199.79L100.56,185.4L101.11,190.95L102.78,212.2L103.33,212.46L103.89,211.74L104.44,212.87L105,210.82L105.56,212.83L106.11,212.23L106.67,220.04L107.78,232.92L108.33,233.1L108.89,233.36L109.44,229.8L110,221.31L110.56,196.09L111.11,171.51L111.67,178.36L112.22,196.33L112.78,199.61L113.33,194.65L115,213.11L115.56,213.09L117.22,215.69L117.78,210.37L118.33,207.27L118.89,208.43L120,197.49L120.56,204.42L121.11,211.77L121.67,210.84L122.22,211.68L122.78,202.1L123.33,204.36L123.89,206.13L125,198.71L125.56,188.98L126.67,175.32L127.22,181.7L127.78,177.56L128.33,191.97L130,210.1L130.56,206.95L131.11,199.6L131.67,204.75L132.22,208L132.78,217.53L133.89,231.73L134.44,223.11L135.56,201.48L136.11,205.78L136.67,226.14L137.22,222.31L137.78,211.9L139.44,143.09L140,109.53L140.56,113.46L141.11,184.36L142.22,228.63L142.78,238.72L143.33,239.99L143.89,235.95L144.44,237.97L145,247.55L146.11,258.95L146.67,261.22L147.78,259.01L148.33,255.1L149.44,236.73L150,220.49L150.56,225.24L151.11,223.38L152.22,250.9L152.78,252.03L153.89,237.86L154.44,224.62L155.56,209.2L156.11,219.4L157.78,227.33L158.33,229.3L158.89,231.17L159.44,229.75L160,230.16L160.56,227.64L162.22,208.88L162.78,209.52L164.44,243.88L165,243.44L165.56,241.09L166.11,241.91L166.67,241.19L167.22,243.58L167.78,235.39L168.89,234.39L169.44,219.57L170.56,202.14L171.11,205.88L172.22,216.58L172.78,217.13L173.33,215.94L173.89,216.28L174.44,217.88L175,212.65L175.56,213.71L176.11,211.31L177.22,208.2L177.78,210.39L179.44,201.28L180,202.4L182.78,178.03L183.33,181.78L185.56,200.04L186.11,200.9L187.78,220.6L188.33,201.59L188.89,195.15L189.44,209.2L190.56,227.6L191.11,228.97L191.67,228.96L192.22,230.7L192.78,232.74L193.33,226.23L194.44,218.8L195,213.57L196.67,196.8L197.22,178.81L198.33,146.42L198.89,174.66L199.44,179.39L200,193.87L202.78,222.27L203.33,216.79L203.89,217.61L204.44,214.73L205.56,217.72L206.11,215.39L206.67,212.87L207.22,140.56L208.89,85.96L209.44,77.56L210,69.69L210.56,69.97L211.11,163.13L212.78,215.33L213.33,188.3L214.44,179.86L215,190.37L216.11,214.37L216.67,217.32L218.33,225.33L218.89,220.22L220,164.53L220.56,182L221.67,217.08L222.22,218.4L223.33,227.47L223.89,225.3L225,234.54L225.56,244.56L226.11,252.15L226.67,238.63L227.78,218.22L228.33,195.53L228.89,198.71L229.44,223.48L230,230.64L230.56,227.81L231.67,213.17L232.22,223.08L232.78,217.27L233.33,203.65L234.44,187.88L235,192.7L236.67,251.94L237.22,251.8L238.33,229.49L238.89,230.24L239.44,252.31L240,264.09L240.56,257.55L241.11,252.04L241.67,253.1L242.22,263.04L243.33,269.8L243.89,269.37L245,264.45L245.56,264.26L248.33,209.33L248.89,198.21L250.56,158.05L251.11,191.4L252.22,219.8L252.78,217.85L253.33,216.79L253.89,220.39L254.44,221.88L255,220.08L255.56,219.97L256.11,221.01L257.22,231.82L257.78,241.13L258.89,251.6L259.44,252.9L260.56,255.64L261.11,254.12L262.78,217.86L263.33,234.6L266.11,210.16L266.67,211.09L267.22,209.94L267.78,206.71L270,193.16L270.56,186.78L271.11,185.55L271.67,188.25L272.78,201.72L273.33,218.71L273.89,217.44L274.44,212.12L276.11,198.3L276.67,195.6L280,235.79L280.56,230.66L281.67,233.44L282.22,230.6L283.33,235.04L283.89,233.58L284.44,233.67L285,227.91L286.11,229.61L286.67,229.81L287.22,229.7L287.78,230.66L290,241.36L290.56,243.88L291.11,243.45L291.67,236.46L293.33,229.57L293.89,231.4L294.44,231.3L295,233.77L296.67,258.41L297.22,260.58L300,283.92L300.56,281.32L301.11,285.61L301.67,285.14L302.22,280.67L304.44,269.37L305,269.44L305.56,265.12L306.11,265.44L306.67,247.7L308.33,234.36L308.89,230.04L311.67,193.17L312.22,195.21L312.78,198.24L313.33,210.61L314.44,237.05L315,242.82L315.56,242.4L316.11,238.35L317.22,223.83L317.78,220.78L318.89,225.02L319.44,224.98L322.22,234.04L322.78,235.11L323.33,234.13L323.89,230.21L325,222.98L325.56,209.38L327.22,230.11L327.78,223.05L328.33,222.12L328.89,224.86L330,226.98L330.56,218.78L331.67,232.23L332.22,234.12L333.33,224.22L333.89,228.97L335,235.99L335.56,215.72L336.11,211.05L336.67,225.59L337.22,221.83L337.78,230.19L338.33,230.58L338.89,231.91L343.89,179.14L344.44,177.11L345,175.21L345.56,178.06L347.22,188.68L347.78,185.58L349.44,231.15L350,231.61L351.11,214.41L351.67,196.73L352.78,178.01L353.33,177.55L355,143.48L355.56,104L357.22,18.73L357.78,16L358.89,224.38L359.44,216.26L360,213.42L362.22,192.6L362.78,209.89L363.89,237.69L364.44,238.15L365,231.24L365.56,210.47L366.11,193.88L366.67,140.42L367.78,199.01L368.33,200.69L370,219.48L370.56,220.68L371.11,219.47L371.67,215.02L372.22,214.96L372.78,221.38L375,174.44L375.56,170.4L376.11,171.74L376.67,175.43L378.33,184.44L378.89,188.14L379.44,195.27L380,247.25L381.11,267.52L381.67,264.34L382.78,259.59L383.33,243.48L383.89,235.26L384.44,243.45L385.56,258.74L386.11,248.43L386.67,248.82L387.22,239.67L388.89,269.71L389.44,267.23L391.11,270.17L391.67,267.24L392.22,267.12L392.78,270.02L393.33,270.82L393.89,270.33L394.44,267.79L397.22,273.48L397.78,272.18L398.33,271.87L398.89,268.42L399.44,233.35L400,240.01L400.56,236.37L401.11,234.58L401.67,238.03L402.22,238.16L402.78,241.81L403.33,243.13L403.89,248.79L404.44,246.82L405,248.4L406.11,247.32L406.67,249.35L407.78,248.35L408.33,248.14L408.89,248.72L409.44,243.78L411.11,246.37L411.67,245.74L412.22,246.95L412.78,245.91L413.33,244.18L413.89,246.98L415.56,258.57L416.11,256.38L417.22,263.67L417.78,264.09L418.33,251.6L418.89,257.2L419.44,268.69L420,261.05L420.56,260.9L421.11,262.07L421.67,261.8L422.22,263.23L423.33,263.94L423.89,265.91L425,270.08L425.56,268.55L427.22,264.63L427.78,265.29L429.44,256.36L430,255.28L430.56,246.24L431.11,246.95L431.67,266.77L432.78,282L433.33,284.16L435.56,297.4L436.11,297.48L436.67,297.72L437.22,299.43L438.33,304L438.89,300.95L440,297.49L440.56,297.55L441.11,295.77L441.67,298.7L442.22,295.46L442.78,297.19L443.89,296.83L444.44,297.87L445.56,295.6L446.11,296.55L448.33,289.36L448.89,288.46L450,283.56L450.56,282.74L451.11,282.55L451.67,280.24L453.89,289.35L454.44,286.7L455.56,285.81L456.11,283.96L456.67,286.33L457.22,284.03L458.89,281.18L459.44,277.92L460.56,276.58L461.11,273.64L462.78,275.11L463.33,274.05L466.11,275.48L466.67,271.97L467.78,268.36L468.33,268.77L469.44,268.41L470,269.61L472.22,272.93L472.78,276.18L473.33,276.21L473.89,274.82L474.44,275.7L475,271.82L476.67,273.04L477.22,272.88L477.78,272.68L478.33,273.79L479.44,273.88L480,272.37L480.56,271.76L481.11,268.16L481.67,269.29L482.22,267.57L483.33,268.3L483.89,266.19L485.56,268.15L486.11,267.33L487.22,262.02L487.78,264.77L488.33,263.43L488.89,263.73L489.44,266.06L490,265.59L490.56,268L491.11,266.43L491.67,269.73L493.89,276.34L494.44,278.28L495,280.72L495.56,279.84L496.11,280.14L496.67,279.97L497.22,282.53L499.44,269.98L500,273.21L501.11,278.5L501.67,278.18L502.22,278.52L502.78,276.47L503.33,278.82L503.89,277.82L506.67,270.45L507.22,272.24L508.89,277.37L509.44,277.02L510.56,274.92L511.11,275.3L511.67,274.92L512.22,276.78L512.78,275.74L513.33,280.26L514.44,289.84L515,286.93L517.22,292.65L517.78,291.43L518.33,291.21L518.89,287.02L519.44,283.64L520,285.02L521.67,291.52L522.22,291.12L524.44,291.54L525,290.92L525.56,288.31L526.11,289.27L526.67,287.15L527.78,281.86L528.33,281.37L531.11,286.32L531.67,289.19L532.22,288.63L532.78,290.07L533.33,290.17L533.89,288.69L535,285.9L535.56,286.25L536.11,288.02L536.67,287.41L537.22,284.84L537.78,284.74L538.33,287.57L540,280.13" style="vector-effect: none; fill: none; stroke: rgb(0, 0, 255); stroke-opacity: 1; stroke-width: 2px; opacity: 1;"/></g><g class="points"/><g class="text"/></g><g class="trace scatter trace426d37" style="stroke-miterlimit: 2; opacity: 1;"><g class="fills"/><g class="errorbars"/><g class="lines"><path class="js-line" d="M0,100.05L540,100.05" style="vector-effect: none; fill: none; stroke: rgb(255, 0, 0); stroke-opacity: 1; stroke-dasharray: 9px, 9px; stroke-width: 2px; opacity: 1;"/></g><g class="points"/><g class="text"/></g></g></g></g><path class="xlines-above crisp" d="M0,0" style="fill: none;"/><path class="ylines-above crisp" d="M0,0" style="fill: none;"/><g class="overlines-above"/><g class="xaxislayer-above"><g class="xtick"><text text-anchor="middle" x="0" y="433" transform="translate(80,0)" style="font-family: 'Open Sans', verdana, arial, sans-serif; font-size: 12px; fill: rgb(42, 63, 95); fill-opacity: 1; white-space: pre; opacity: 1;">0</text></g><g class="xtick"><text text-anchor="middle" x="0" y="433" style="font-family: 'Open Sans', verdana, arial, sans-serif; font-size: 12px; fill: rgb(42, 63, 95); fill-opacity: 1; white-space: pre; opacity: 1;" transform="translate(191.11,0)">200</text></g><g class="xtick"><text text-anchor="middle" x="0" y="433" style="font-family: 'Open Sans', verdana, arial, sans-serif; font-size: 12px; fill: rgb(42, 63, 95); fill-opacity: 1; white-space: pre; opacity: 1;" transform="translate(302.22,0)">400</text></g><g class="xtick"><text text-anchor="middle" x="0" y="433" style="font-family: 'Open Sans', verdana, arial, sans-serif; font-size: 12px; fill: rgb(42, 63, 95); fill-opacity: 1; white-space: pre; opacity: 1;" transform="translate(413.33,0)">600</text></g><g class="xtick"><text text-anchor="middle" x="0" y="433" style="font-family: 'Open Sans', verdana, arial, sans-serif; font-size: 12px; fill: rgb(42, 63, 95); fill-opacity: 1; white-space: pre; opacity: 1;" transform="translate(524.44,0)">800</text></g></g><g class="yaxislayer-above"><g class="ytick"><text text-anchor="end" x="79" y="4.199999999999999" transform="translate(0,416.76)" style="font-family: 'Open Sans', verdana, arial, sans-serif; font-size: 12px; fill: rgb(42, 63, 95); fill-opacity: 1; white-space: pre; opacity: 1;">0.01</text></g><g class="ytick"><text text-anchor="end" x="79" y="4.199999999999999" style="font-family: 'Open Sans', verdana, arial, sans-serif; font-size: 12px; fill: rgb(42, 63, 95); fill-opacity: 1; white-space: pre; opacity: 1;" transform="translate(0,364.23)">0.02</text></g><g class="ytick"><text text-anchor="end" x="79" y="4.199999999999999" style="font-family: 'Open Sans', verdana, arial, sans-serif; font-size: 12px; fill: rgb(42, 63, 95); fill-opacity: 1; white-space: pre; opacity: 1;" transform="translate(0,311.69)">0.03</text></g><g class="ytick"><text text-anchor="end" x="79" y="4.199999999999999" style="font-family: 'Open Sans', verdana, arial, sans-serif; font-size: 12px; fill: rgb(42, 63, 95); fill-opacity: 1; white-space: pre; opacity: 1;" transform="translate(0,259.15999999999997)">0.04</text></g><g class="ytick"><text text-anchor="end" x="79" y="4.199999999999999" style="font-family: 'Open Sans', verdana, arial, sans-serif; font-size: 12px; fill: rgb(42, 63, 95); fill-opacity: 1; white-space: pre; opacity: 1;" transform="translate(0,206.63)">0.05</text></g><g class="ytick"><text text-anchor="end" x="79" y="4.199999999999999" style="font-family: 'Open Sans', verdana, arial, sans-serif; font-size: 12px; fill: rgb(42, 63, 95); fill-opacity: 1; white-space: pre; opacity: 1;" transform="translate(0,154.09)">0.06</text></g><g class="ytick"><text text-anchor="end" x="79" y="4.199999999999999" style="font-family: 'Open Sans', verdana, arial, sans-serif; font-size: 12px; fill: rgb(42, 63, 95); fill-opacity: 1; white-space: pre; opacity: 1;" transform="translate(0,101.56)">0.07</text></g></g><g class="overaxes-above"/></g></g><g class="polarlayer"/><g class="smithlayer"/><g class="ternarylayer"/><g class="geolayer"/><g class="funnelarealayer"/><g class="pielayer"/><g class="iciclelayer"/><g class="treemaplayer"/><g class="sunburstlayer"/><g class="glimages"/><defs id="topdefs-b5ab68"><g class="clips"/><clipPath id="legendb5ab68"><rect width="206" height="48" x="0" y="0"/></clipPath></defs><g class="layer-above"><g class="imagelayer"/><g class="shapelayer"/></g><g class="infolayer"><g class="legend" pointer-events="all" transform="translate(80,100)"><rect class="bg" shape-rendering="crispEdges" style="stroke: rgb(68, 68, 68); stroke-opacity: 1; fill: rgb(255, 255, 255); fill-opacity: 1; stroke-width: 0px;" width="206" height="48" x="0" y="0"/><g class="scrollbox" transform="" clip-path="url(#legendb5ab68)"><g class="groups"><g class="traces" transform="translate(0,14.5)" style="opacity: 1;"><text class="legendtext" text-anchor="start" x="40" y="4.680000000000001" style="font-family: 'Open Sans', verdana, arial, sans-serif; font-size: 12px; fill: rgb(42, 63, 95); fill-opacity: 1; white-space: pre;">Reconstruction Loss (MSE)</text><g class="layers" style="opacity: 1;"><g class="legendfill"/><g class="legendlines"><path class="js-line" d="M5,0h30" style="fill: none; stroke: rgb(0, 0, 255); stroke-opacity: 1; stroke-width: 2px;"/></g><g class="legendsymbols"><g class="legendpoints"/></g></g><rect class="legendtoggle" x="0" y="-9.5" width="200.890625" height="19" style="fill: rgb(0, 0, 0); fill-opacity: 0;"/></g><g class="traces" transform="translate(0,33.5)" style="opacity: 1;"><text class="legendtext" text-anchor="start" x="40" y="4.680000000000001" style="font-family: 'Open Sans', verdana, arial, sans-serif; font-size: 12px; fill: rgb(42, 63, 95); fill-opacity: 1; white-space: pre;">Anomaly Threshold</text><g class="layers" style="opacity: 1;"><g class="legendfill"/><g class="legendlines"><path class="js-line" d="M5,0h30" style="fill: none; stroke: rgb(255, 0, 0); stroke-opacity: 1; stroke-dasharray: 9px, 9px; stroke-width: 2px;"/></g><g class="legendsymbols"><g class="legendpoints"/></g></g><rect class="legendtoggle" x="0" y="-9.5" width="200.890625" height="19" style="fill: rgb(0, 0, 0); fill-opacity: 0;"/></g></g></g><rect class="scrollbar" rx="20" ry="3" width="0" height="0" style="fill: rgb(128, 139, 164); fill-opacity: 1;" x="0" y="0"/></g><g class="g-gtitle"><text class="gtitle" x="35" y="50" text-anchor="start" dy="0em" style="opacity: 1; font-family: 'Open Sans', verdana, arial, sans-serif; font-size: 17px; fill: rgb(42, 63, 95); fill-opacity: 1; white-space: pre;">Reconstruction Loss (MSE) - EdgeUI</text></g><g class="g-xtitle"><text class="xtitle" x="350" y="460.3" text-anchor="middle" style="opacity: 1; font-family: 'Open Sans', verdana, arial, sans-serif; font-size: 14px; fill: rgb(42, 63, 95); fill-opacity: 1; white-space: pre;">Sequence Index</text></g><g class="g-ytitle"><text class="ytitle" transform="rotate(-90,32.334375,260)" x="32.334375" y="260" text-anchor="middle" style="opacity: 1; font-family: 'Open Sans', verdana, arial, sans-serif; font-size: 14px; fill: rgb(42, 63, 95); fill-opacity: 1; white-space: pre;">Loss</text></g></g></svg>