<svg class="main-svg" xmlns="http://www.w3.org/2000/svg" xmlns:xlink="http://www.w3.org/1999/xlink" width="1400" height="1000" style="" viewBox="0 0 700 500"><rect x="0" y="0" width="700" height="500" style="fill: rgb(255, 255, 255); fill-opacity: 1;"/><defs id="defs-147e11"><g class="clips"><clipPath id="clip147e11xyplot" class="plotclip"><rect width="540" height="320"/></clipPath><clipPath class="axesclip" id="clip147e11x"><rect x="80" y="0" width="540" height="500"/></clipPath><clipPath class="axesclip" id="clip147e11y"><rect x="0" y="100" width="700" height="320"/></clipPath><clipPath class="axesclip" id="clip147e11xy"><rect x="80" y="100" width="540" height="320"/></clipPath></g><g class="gradients"/><g class="patterns"/></defs><g class="bglayer"/><g class="layer-below"><g class="imagelayer"/><g class="shapelayer"/></g><g class="cartesianlayer"><g class="subplot xy"><g class="layer-subplot"><g class="shapelayer"/><g class="imagelayer"/></g><g class="minor-gridlayer"><g class="x"/><g class="y"/></g><g class="gridlayer"><g class="x"><path class="xgrid crisp" transform="translate(191.11,0)" d="M0,100v320" style="stroke: rgb(235, 240, 248); stroke-opacity: 1; stroke-width: 1px;"/><path class="xgrid crisp" transform="translate(302.22,0)" d="M0,100v320" style="stroke: rgb(235, 240, 248); stroke-opacity: 1; stroke-width: 1px;"/><path class="xgrid crisp" transform="translate(413.33,0)" d="M0,100v320" style="stroke: rgb(235, 240, 248); stroke-opacity: 1; stroke-width: 1px;"/><path class="xgrid crisp" transform="translate(524.44,0)" d="M0,100v320" style="stroke: rgb(235, 240, 248); stroke-opacity: 1; stroke-width: 1px;"/></g><g class="y"><path class="ygrid crisp" transform="translate(0,369.99)" d="M80,0h540" style="stroke: rgb(235, 240, 248); stroke-opacity: 1; stroke-width: 1px;"/><path class="ygrid crisp" transform="translate(0,333.51)" d="M80,0h540" style="stroke: rgb(235, 240, 248); stroke-opacity: 1; stroke-width: 1px;"/><path class="ygrid crisp" transform="translate(0,297.02)" d="M80,0h540" style="stroke: rgb(235, 240, 248); stroke-opacity: 1; stroke-width: 1px;"/><path class="ygrid crisp" transform="translate(0,260.53)" d="M80,0h540" style="stroke: rgb(235, 240, 248); stroke-opacity: 1; stroke-width: 1px;"/><path class="ygrid crisp" transform="translate(0,224.04000000000002)" d="M80,0h540" style="stroke: rgb(235, 240, 248); stroke-opacity: 1; stroke-width: 1px;"/><path class="ygrid crisp" transform="translate(0,187.55)" d="M80,0h540" style="stroke: rgb(235, 240, 248); stroke-opacity: 1; stroke-width: 1px;"/><path class="ygrid crisp" transform="translate(0,151.07)" d="M80,0h540" style="stroke: rgb(235, 240, 248); stroke-opacity: 1; stroke-width: 1px;"/><path class="ygrid crisp" transform="translate(0,114.58)" d="M80,0h540" style="stroke: rgb(235, 240, 248); stroke-opacity: 1; stroke-width: 1px;"/></g></g><g class="zerolinelayer"><path class="xzl zl crisp" transform="translate(80,0)" d="M0,100v320" style="stroke: rgb(235, 240, 248); stroke-opacity: 1; stroke-width: 2px;"/><path class="yzl zl crisp" transform="translate(0,406.48)" d="M80,0h540" style="stroke: rgb(235, 240, 248); stroke-opacity: 1; stroke-width: 2px;"/></g><g class="layer-between"><g class="shapelayer"/><g class="imagelayer"/></g><path class="xlines-below"/><path class="ylines-below"/><g class="overlines-below"/><g class="xaxislayer-below"/><g class="yaxislayer-below"/><g class="overaxes-below"/><g class="overplot"><g class="xy" transform="translate(80,100)" clip-path="url(#clip147e11xyplot)"><g class="scatterlayer mlayer"><g class="trace scatter trace03154f" style="stroke-miterlimit: 2; opacity: 1;"><g class="fills"/><g class="errorbars"/><g class="lines"><path class="js-line" d="M0,157.61L3.33,157.31L3.89,159.34L5.56,164.57L6.11,164.7L8.89,164.24L9.44,165.4L11.67,161.77L12.22,161.2L16.11,159.04L16.67,158.1L17.78,159.3L18.33,160.42L20.56,164.84L21.11,164.62L22.78,164.11L23.33,165.19L26.11,160.48L26.67,160.81L27.78,163.11L28.33,165.77L32.22,164.27L32.78,163.29L34.44,161.05L35,161.1L37.78,159.16L38.33,159.92L40,162.08L40.56,162.04L42.78,161.93L43.33,164.3L43.89,153.76L44.44,155.12L45,156.55L46.67,161.72L47.22,161.67L50.56,162.13L51.11,162.34L52.22,162.51L52.78,161.74L54.44,170.4L55,170.08L55.56,169.94L57.22,169.54L57.78,169.81L58.33,170.8L58.89,167.78L60,164.98L60.56,164.66L62.78,164.37L63.33,164.45L64.44,164.28L65,163.17L67.22,176.72L67.78,181.83L71.67,183.04L72.22,182.22L76.67,219.16L77.22,229.04L86.67,232.15L87.22,232.5L87.78,232.35L88.33,239.62L93.33,303.98L93.89,303.97L104.44,303.42L105,303.38L127.78,302.53L128.33,302.9L129.44,302.49L130,302.49L143.89,302.44L144.44,292.41L148.89,227.11L149.44,226.97L173.33,229.93L173.89,230.24L177.22,233.16L177.78,240.42L180,271.56L180.56,270.42L181.11,268.71L182.78,265.06L183.33,265.15L187.22,265.71L187.78,257.54L190.56,221.9L191.11,221.73L196.67,222.34L197.22,216.61L200.56,187.65L201.11,187.51L205.56,187.32L206.11,187.34L206.67,187.34L207.22,183.34L210,168.72L210.56,166.81L211.11,165.14L211.67,165.4L212.22,165.41L212.78,165.18L213.33,164.05L215,170.21L215.56,173.55L218.89,173.62L219.44,170.63L220.56,164.35L221.11,164.54L221.67,164.79L222.78,165.29L223.33,167.76L223.89,170.88L224.44,170.72L225,170.52L228.33,169.93L228.89,169.92L230,168.55L230.56,171.58L231.11,174.8L231.67,174.52L232.22,174.63L233.33,174.9L233.89,175.78L236.67,164.28L237.22,162.84L240,158.8L240.56,159.67L242.22,159.83L242.78,159.94L243.89,160.51L244.44,161.5L246.11,160.89L246.67,160.74L248.89,159.34L249.44,159.16L251.67,158.87L252.22,157.95L253.33,156.2L253.89,155.96L255,156.16L255.56,156.33L256.11,157.48L256.67,156.29L258.33,156.08L258.89,156.62L260.56,159.36L261.11,160.78L262.22,163.27L262.78,163.11L263.89,163.3L264.44,162.77L266.11,158.9L266.67,158.47L268.89,159.08L269.44,159.56L272.22,162.18L272.78,161.54L274.44,159L275,157.72L276.11,156.43L276.67,156.41L278.33,156.82L278.89,157.38L281.11,160.96L281.67,161.48L285,173.49L285.56,172.47L287.78,163.31L288.33,163.16L289.44,162.32L290,160.32L292.22,155.19L292.78,154.53L293.89,153.9L294.44,154.29L295,155.57L295.56,155.26L296.11,154.97L297.78,153.98L298.33,152.73L300,156.85L300.56,159.08L302.22,168.3L302.78,163.15L303.33,164.05L303.89,168.33L305.56,178.63L306.11,178.9L308.33,179.96L308.89,185.35L316.11,267.16L316.67,264.95L318.33,279.28L318.89,279.33L326.67,280L327.22,279.95L329.44,244.73L330,244.91L335,245.9L335.56,238.45L336.11,239.91L336.67,235.48L348.33,238.59L348.89,231.72L351.11,212.55L351.67,207.1L352.78,202.01L353.33,201.98L358.33,202.41L358.89,202.62L360.56,188.09L361.11,192.35L363.33,206.26L363.89,206.3L366.67,207.07L367.22,201.78L368.89,191.46L369.44,191.3L370,191.48L370.56,187.4L372.22,180.21L372.78,180.12L379.44,179.76L380,179.83L381.67,179.63L382.22,183.65L382.78,187.96L383.33,187.67L383.89,187.43L385.56,187.38L386.11,183.54L387.78,176.64L388.33,176.44L392.22,174.85L392.78,178.16L394.44,186.21L395,186.24L398.33,186.65L398.89,182.24L401.11,131.35L401.67,124.04L404.44,93.8L405,91.11L407.22,72.76L407.78,70.33L409.44,66.65L410,52.49L412.22,20.36L412.78,16L415.56,53.3L416.11,58.34L422.22,127.65L422.78,117.68L424.44,107.44L425,118.68L427.78,152.93L428.33,157.56L431.67,181.79L432.22,194.92L434.44,217.74L435,217.81L436.11,217.97L436.67,213.24L440.56,180.51L441.11,176.97L442.78,166.42L443.33,168.12L445,176.19L445.56,180.06L446.11,185.08L446.67,184.42L447.22,183.85L452.22,179.73L452.78,177.34L455.56,165.21L456.11,167.84L457.78,181.21L458.33,180.74L458.89,180.35L462.22,179.4L462.78,179.34L465.56,178.72L466.11,178.24L468.33,175.36L468.89,174.19L469.44,172.25L470,174.95L472.22,179.85L472.78,180.65L475,182.49L475.56,186.17L476.11,190.99L476.67,190.35L477.22,189.72L485,181.87L485.56,187.3L487.78,215.34L488.33,210.91L490,200.58L490.56,200.32L495,198.81L495.56,198.67L498.33,197.3L498.89,196.7L499.44,196.07L500,192.57L502.22,174.86L502.78,175.5L503.33,176.16L503.89,176.87L504.44,180.19L507.22,203.25L507.78,209.6L508.89,216.51L509.44,216.57L513.33,216.69L513.89,211.57L515.56,200.76L516.11,200.73L520.56,198.35L521.11,197.01L523.33,218.03L523.89,218.04L526.67,218.46L527.22,213.04L531.11,180.76L531.67,177.38L532.78,174.08L533.33,177.32L536.11,199.39L536.67,205.19L537.22,211.84L537.78,211.79L538.33,211.79L540,211.62" style="vector-effect: none; fill: none; stroke: rgb(0, 0, 255); stroke-opacity: 1; stroke-width: 2px; opacity: 1;"/></g><g class="points"/><g class="text"/></g><g class="trace scatter traceb2c00e" style="stroke-miterlimit: 2; opacity: 1;"><g class="fills"/><g class="errorbars"/><g class="lines"><path class="js-line" d="M0,53.08L540,53.08" style="vector-effect: none; fill: none; stroke: rgb(255, 0, 0); stroke-opacity: 1; stroke-dasharray: 9px, 9px; stroke-width: 2px; opacity: 1;"/></g><g class="points"/><g class="text"/></g></g></g></g><path class="xlines-above crisp" d="M0,0" style="fill: none;"/><path class="ylines-above crisp" d="M0,0" style="fill: none;"/><g class="overlines-above"/><g class="xaxislayer-above"><g class="xtick"><text text-anchor="middle" x="0" y="433" transform="translate(80,0)" style="font-family: 'Open Sans', verdana, arial, sans-serif; font-size: 12px; fill: rgb(42, 63, 95); fill-opacity: 1; white-space: pre; opacity: 1;">0</text></g><g class="xtick"><text text-anchor="middle" x="0" y="433" style="font-family: 'Open Sans', verdana, arial, sans-serif; font-size: 12px; fill: rgb(42, 63, 95); fill-opacity: 1; white-space: pre; opacity: 1;" transform="translate(191.11,0)">200</text></g><g class="xtick"><text text-anchor="middle" x="0" y="433" style="font-family: 'Open Sans', verdana, arial, sans-serif; font-size: 12px; fill: rgb(42, 63, 95); fill-opacity: 1; white-space: pre; opacity: 1;" transform="translate(302.22,0)">400</text></g><g class="xtick"><text text-anchor="middle" x="0" y="433" style="font-family: 'Open Sans', verdana, arial, sans-serif; font-size: 12px; fill: rgb(42, 63, 95); fill-opacity: 1; white-space: pre; opacity: 1;" transform="translate(413.33,0)">600</text></g><g class="xtick"><text text-anchor="middle" x="0" y="433" style="font-family: 'Open Sans', verdana, arial, sans-serif; font-size: 12px; fill: rgb(42, 63, 95); fill-opacity: 1; white-space: pre; opacity: 1;" transform="translate(524.44,0)">800</text></g></g><g class="yaxislayer-above"><g class="ytick"><text text-anchor="end" x="79" y="4.199999999999999" transform="translate(0,406.48)" style="font-family: 'Open Sans', verdana, arial, sans-serif; font-size: 12px; fill: rgb(42, 63, 95); fill-opacity: 1; white-space: pre; opacity: 1;">0</text></g><g class="ytick"><text text-anchor="end" x="79" y="4.199999999999999" style="font-family: 'Open Sans', verdana, arial, sans-serif; font-size: 12px; fill: rgb(42, 63, 95); fill-opacity: 1; white-space: pre; opacity: 1;" transform="translate(0,369.99)">0.01</text></g><g class="ytick"><text text-anchor="end" x="79" y="4.199999999999999" style="font-family: 'Open Sans', verdana, arial, sans-serif; font-size: 12px; fill: rgb(42, 63, 95); fill-opacity: 1; white-space: pre; opacity: 1;" transform="translate(0,333.51)">0.02</text></g><g class="ytick"><text text-anchor="end" x="79" y="4.199999999999999" style="font-family: 'Open Sans', verdana, arial, sans-serif; font-size: 12px; fill: rgb(42, 63, 95); fill-opacity: 1; white-space: pre; opacity: 1;" transform="translate(0,297.02)">0.03</text></g><g class="ytick"><text text-anchor="end" x="79" y="4.199999999999999" style="font-family: 'Open Sans', verdana, arial, sans-serif; font-size: 12px; fill: rgb(42, 63, 95); fill-opacity: 1; white-space: pre; opacity: 1;" transform="translate(0,260.53)">0.04</text></g><g class="ytick"><text text-anchor="end" x="79" y="4.199999999999999" style="font-family: 'Open Sans', verdana, arial, sans-serif; font-size: 12px; fill: rgb(42, 63, 95); fill-opacity: 1; white-space: pre; opacity: 1;" transform="translate(0,224.04000000000002)">0.05</text></g><g class="ytick"><text text-anchor="end" x="79" y="4.199999999999999" style="font-family: 'Open Sans', verdana, arial, sans-serif; font-size: 12px; fill: rgb(42, 63, 95); fill-opacity: 1; white-space: pre; opacity: 1;" transform="translate(0,187.55)">0.06</text></g><g class="ytick"><text text-anchor="end" x="79" y="4.199999999999999" style="font-family: 'Open Sans', verdana, arial, sans-serif; font-size: 12px; fill: rgb(42, 63, 95); fill-opacity: 1; white-space: pre; opacity: 1;" transform="translate(0,151.07)">0.07</text></g><g class="ytick"><text text-anchor="end" x="79" y="4.199999999999999" style="font-family: 'Open Sans', verdana, arial, sans-serif; font-size: 12px; fill: rgb(42, 63, 95); fill-opacity: 1; white-space: pre; opacity: 1;" transform="translate(0,114.58)">0.08</text></g></g><g class="overaxes-above"/></g></g><g class="polarlayer"/><g class="smithlayer"/><g class="ternarylayer"/><g class="geolayer"/><g class="funnelarealayer"/><g class="pielayer"/><g class="iciclelayer"/><g class="treemaplayer"/><g class="sunburstlayer"/><g class="glimages"/><defs id="topdefs-147e11"><g class="clips"/><clipPath id="legend147e11"><rect width="206" height="48" x="0" y="0"/></clipPath></defs><g class="layer-above"><g class="imagelayer"/><g class="shapelayer"/></g><g class="infolayer"><g class="legend" pointer-events="all" transform="translate(80,100)"><rect class="bg" shape-rendering="crispEdges" style="stroke: rgb(68, 68, 68); stroke-opacity: 1; fill: rgb(255, 255, 255); fill-opacity: 1; stroke-width: 0px;" width="206" height="48" x="0" y="0"/><g class="scrollbox" transform="" clip-path="url(#legend147e11)"><g class="groups"><g class="traces" transform="translate(0,14.5)" style="opacity: 1;"><text class="legendtext" text-anchor="start" x="40" y="4.680000000000001" style="font-family: 'Open Sans', verdana, arial, sans-serif; font-size: 12px; fill: rgb(42, 63, 95); fill-opacity: 1; white-space: pre;">Reconstruction Loss (MSE)</text><g class="layers" style="opacity: 1;"><g class="legendfill"/><g class="legendlines"><path class="js-line" d="M5,0h30" style="fill: none; stroke: rgb(0, 0, 255); stroke-opacity: 1; stroke-width: 2px;"/></g><g class="legendsymbols"><g class="legendpoints"/></g></g><rect class="legendtoggle" x="0" y="-9.5" width="200.890625" height="19" style="fill: rgb(0, 0, 0); fill-opacity: 0;"/></g><g class="traces" transform="translate(0,33.5)" style="opacity: 1;"><text class="legendtext" text-anchor="start" x="40" y="4.680000000000001" style="font-family: 'Open Sans', verdana, arial, sans-serif; font-size: 12px; fill: rgb(42, 63, 95); fill-opacity: 1; white-space: pre;">Anomaly Threshold</text><g class="layers" style="opacity: 1;"><g class="legendfill"/><g class="legendlines"><path class="js-line" d="M5,0h30" style="fill: none; stroke: rgb(255, 0, 0); stroke-opacity: 1; stroke-dasharray: 9px, 9px; stroke-width: 2px;"/></g><g class="legendsymbols"><g class="legendpoints"/></g></g><rect class="legendtoggle" x="0" y="-9.5" width="200.890625" height="19" style="fill: rgb(0, 0, 0); fill-opacity: 0;"/></g></g></g><rect class="scrollbar" rx="20" ry="3" width="0" height="0" style="fill: rgb(128, 139, 164); fill-opacity: 1;" x="0" y="0"/></g><g class="g-gtitle"><text class="gtitle" x="35" y="50" text-anchor="start" dy="0em" style="opacity: 1; font-family: 'Open Sans', verdana, arial, sans-serif; font-size: 17px; fill: rgb(42, 63, 95); fill-opacity: 1; white-space: pre;">Reconstruction Loss (MSE) - EdgeInfraDashbo</text></g><g class="g-xtitle"><text class="xtitle" x="350" y="460.3" text-anchor="middle" style="opacity: 1; font-family: 'Open Sans', verdana, arial, sans-serif; font-size: 14px; fill: rgb(42, 63, 95); fill-opacity: 1; white-space: pre;">Sequence Index</text></g><g class="g-ytitle"><text class="ytitle" transform="rotate(-90,32.334375,260)" x="32.334375" y="260" text-anchor="middle" style="opacity: 1; font-family: 'Open Sans', verdana, arial, sans-serif; font-size: 14px; fill: rgb(42, 63, 95); fill-opacity: 1; white-space: pre;">Loss</text></g></g></svg>